<svg width="67" height="54" viewBox="0 0 67 54" xmlns="http://www.w3.org/2000/svg">
<path d="M64.4672 13.2448V11.1279H51.0823V4.46416H49.0232V2.34722H29.2232V4.46416H27.4017V11.1284L26.372 11.1279V2.89575H24.2334V0.778809L2.53263 0.779355V2.89574H0.394653V51.5037H2.5332V53.6207H64.4676L64.4671 51.5043H66.6056L66.605 13.2451L64.4672 13.2448ZM30.0944 7.12961H31.9159V5.01267H46.4095V7.12961H48.4685V10.5794H30.0941L30.0944 7.12961ZM63.9128 48.8384H61.7743V50.9553H5.22546V48.8384H3.08692L3.08747 5.56162H5.22601V3.44468H21.6204V5.56162H23.759V13.7938H61.8542V15.9107H63.9927V48.8387L63.9128 48.8384Z" />
<path d="M30.2528 31.3552H36.7475V29.2383H38.8065V27.1219H36.7475V29.2383H30.2528V27.1219H28.1937V29.2383H30.2528V31.3552Z" />
<path d="M20.6696 16.7728H22.8082V18.8898H20.6696V16.7728Z" />
<path d="M20.6696 20.928H22.8082V23.045H20.6696V20.928Z" />
<path d="M18.5312 20.928H20.6698V18.8111H18.5312V16.7728H16.4722V18.8111H18.5312V20.928H16.4722V23.045H18.5312V20.928Z" />
<path d="M44.1128 20.928H46.2513V23.045H44.1128V20.928Z" />
<path d="M46.172 18.8112H48.3106V20.9282H46.172V18.8112Z" />
<path d="M44.1128 16.7728H46.2513V18.8898H44.1128V16.7728Z" />
<path d="M48.3104 16.7728H50.449V18.8898H48.3104V16.7728Z" />
<path d="M48.3104 20.928H50.449V23.045H48.3104V20.928Z" />
<path d="M50.2904 43.9776H54.488V46.0946H50.2904V43.9776Z" />
<path d="M12.1952 41.8608H16.3928V43.9778H12.1952V41.8608Z" />
<path d="M45.9344 41.8608H50.2905V43.9778H45.9344V41.8608Z" />
<path d="M20.6696 37.7056H37.5392V39.8226H20.6696V37.7056Z" />
<path d="M16.3928 39.744H20.6693V41.861H16.3928V39.744Z" />
<path d="M37.5392 39.744H45.9342V41.861H37.5392V39.744Z" />
</svg>
